<svg width="254" height="93" viewBox="0 0 254 93" fill="none" xmlns="http://www.w3.org/2000/svg">
<path d="M64 42.5V65.1667C64 66.5812 63.4381 67.9377 62.4379 68.9379C61.4377 69.9381 60.0812 70.5 58.6667 70.5H21.3333C19.9188 70.5 18.5623 69.9381 17.5621 68.9379C16.5619 67.9377 16 66.5812 16 65.1667V27.8333C16 26.4188 16.5619 25.0623 17.5621 24.0621C18.5623 23.0619 19.9188 22.5 21.3333 22.5H54.6667M32 43.8333L40 51.8333L66.6667 25.1667" stroke="url(#paint0_linear_6_1305)" stroke-width="6.4" stroke-linecap="round" stroke-linejoin="round"/>
<path d="M109.659 35.0909V41.4545H89.5909V35.0909H109.659ZM94.5455 26.7273H102.773V59.5C102.773 60.6061 102.939 61.4545 103.273 62.0455C103.621 62.6212 104.076 63.0152 104.636 63.2273C105.197 63.4394 105.818 63.5455 106.5 63.5455C107.015 63.5455 107.485 63.5076 107.909 63.4318C108.348 63.3561 108.682 63.2879 108.909 63.2273L110.295 69.6591C109.856 69.8106 109.227 69.9773 108.409 70.1591C107.606 70.3409 106.621 70.447 105.455 70.4773C103.394 70.5379 101.538 70.2273 99.8864 69.5455C98.2348 68.8485 96.9242 67.7727 95.9545 66.3182C95 64.8636 94.5303 63.0455 94.5455 60.8636V26.7273ZM131.392 70.6818C127.983 70.6818 125.028 69.9318 122.528 68.4318C120.028 66.9318 118.089 64.8333 116.71 62.1364C115.347 59.4394 114.665 56.2879 114.665 52.6818C114.665 49.0758 115.347 45.9167 116.71 43.2045C118.089 40.4924 120.028 38.3864 122.528 36.8864C125.028 35.3864 127.983 34.6364 131.392 34.6364C134.801 34.6364 137.756 35.3864 140.256 36.8864C142.756 38.3864 144.688 40.4924 146.051 43.2045C147.43 45.9167 148.119 49.0758 148.119 52.6818C148.119 56.2879 147.43 59.4394 146.051 62.1364C144.688 64.8333 142.756 66.9318 140.256 68.4318C137.756 69.9318 134.801 70.6818 131.392 70.6818ZM131.438 64.0909C133.286 64.0909 134.831 63.5833 136.074 62.5682C137.316 61.5379 138.241 60.1591 138.847 58.4318C139.468 56.7045 139.778 54.7803 139.778 52.6591C139.778 50.5227 139.468 48.5909 138.847 46.8636C138.241 45.1212 137.316 43.7348 136.074 42.7045C134.831 41.6742 133.286 41.1591 131.438 41.1591C129.544 41.1591 127.968 41.6742 126.71 42.7045C125.468 43.7348 124.536 45.1212 123.915 46.8636C123.309 48.5909 123.006 50.5227 123.006 52.6591C123.006 54.7803 123.309 56.7045 123.915 58.4318C124.536 60.1591 125.468 61.5379 126.71 62.5682C127.968 63.5833 129.544 64.0909 131.438 64.0909ZM183.932 70.6136C181.189 70.6136 178.735 69.9091 176.568 68.5C174.402 67.0909 172.689 65.0455 171.432 62.3636C170.174 59.6818 169.545 56.4242 169.545 52.5909C169.545 48.7121 170.182 45.4394 171.455 42.7727C172.742 40.0909 174.477 38.0682 176.659 36.7045C178.841 35.3258 181.273 34.6364 183.955 34.6364C186 34.6364 187.682 34.9848 189 35.6818C190.318 36.3636 191.364 37.1894 192.136 38.1591C192.909 39.1136 193.508 40.0152 193.932 40.8636H194.273V23.4545H202.523V70H194.432V64.5H193.932C193.508 65.3485 192.894 66.25 192.091 67.2045C191.288 68.1439 190.227 68.947 188.909 69.6136C187.591 70.2803 185.932 70.6136 183.932 70.6136ZM186.227 63.8636C187.97 63.8636 189.455 63.3939 190.682 62.4545C191.909 61.5 192.841 60.1742 193.477 58.4773C194.114 56.7803 194.432 54.803 194.432 52.5455C194.432 50.2879 194.114 48.3258 193.477 46.6591C192.856 44.9924 191.932 43.697 190.705 42.7727C189.492 41.8485 188 41.3864 186.227 41.3864C184.394 41.3864 182.864 41.8636 181.636 42.8182C180.409 43.7727 179.485 45.0909 178.864 46.7727C178.242 48.4545 177.932 50.3788 177.932 52.5455C177.932 54.7273 178.242 56.6742 178.864 58.3864C179.5 60.0833 180.432 61.4242 181.659 62.4091C182.902 63.3788 184.424 63.8636 186.227 63.8636ZM226.517 70.6818C223.108 70.6818 220.153 69.9318 217.653 68.4318C215.153 66.9318 213.214 64.8333 211.835 62.1364C210.472 59.4394 209.79 56.2879 209.79 52.6818C209.79 49.0758 210.472 45.9167 211.835 43.2045C213.214 40.4924 215.153 38.3864 217.653 36.8864C220.153 35.3864 223.108 34.6364 226.517 34.6364C229.926 34.6364 232.881 35.3864 235.381 36.8864C237.881 38.3864 239.813 40.4924 241.176 43.2045C242.555 45.9167 243.244 49.0758 243.244 52.6818C243.244 56.2879 242.555 59.4394 241.176 62.1364C239.813 64.8333 237.881 66.9318 235.381 68.4318C232.881 69.9318 229.926 70.6818 226.517 70.6818ZM226.562 64.0909C228.411 64.0909 229.956 63.5833 231.199 62.5682C232.441 61.5379 233.366 60.1591 233.972 58.4318C234.593 56.7045 234.903 54.7803 234.903 52.6591C234.903 50.5227 234.593 48.5909 233.972 46.8636C233.366 45.1212 232.441 43.7348 231.199 42.7045C229.956 41.6742 228.411 41.1591 226.562 41.1591C224.669 41.1591 223.093 41.6742 221.835 42.7045C220.593 43.7348 219.661 45.1212 219.04 46.8636C218.434 48.5909 218.131 50.5227 218.131 52.6591C218.131 54.7803 218.434 56.7045 219.04 58.4318C219.661 60.1591 220.593 61.5379 221.835 62.5682C223.093 63.5833 224.669 64.0909 226.562 64.0909Z" fill="#FAFAFA"/>
<defs>
<linearGradient id="paint0_linear_6_1305" x1="41.3333" y1="22.5" x2="41.3333" y2="70.5" gradientUnits="userSpaceOnUse">
<stop stop-color="#84CC16"/>
<stop offset="1" stop-color="#0284C7"/>
</linearGradient>
</defs>
</svg>
